# Blender v2.79 (sub 0) OBJ File: 'mod_teapot.blend'
# www.blender.org
mtllib mod_teapot.mtl
o Plane.005_Plane.006
v -1.784143 1.884663 0.000000
v -1.782200 1.798608 0.109253
v -1.782200 1.798608 -0.109253
v -1.780257 1.712553 0.000000
v -2.098457 1.862078 0.000000
v -2.085923 1.756382 0.135094
v -2.085923 1.756382 -0.135094
v -2.073390 1.650686 0.000000
v -2.354474 1.620091 0.000000
v -2.252907 1.588266 0.135094
v -2.252907 1.588266 -0.135094
v -2.151340 1.556440 0.000000
v -2.345425 1.214134 0.000000
v -2.229824 1.258497 0.157161
v -2.229824 1.258497 -0.157161
v -2.114222 1.302861 0.000000
v -2.096755 0.827619 0.000000
v -1.982957 0.926556 0.191393
v -1.982957 0.926556 -0.191393
v -1.869160 1.025492 0.000000
v -0.000001 2.087538 -0.000000
v -0.000001 1.917413 -1.017252
v -1.017253 1.917413 0.000000
v -0.000000 1.917413 1.017252
v 1.017251 1.917413 -0.000000
v -0.762940 1.917413 -0.762939
v -0.762939 1.917413 0.762939
v 0.762938 1.917413 -0.762939
v 0.762938 1.917413 0.762939
v 0.119905 2.050970 0.119906
v 0.119905 2.050970 -0.119906
v -0.119906 2.050970 0.119906
v -0.119906 2.050970 -0.119906
v -0.184126 2.228459 -0.184125
v -0.184126 2.228459 0.184125
v 0.184124 2.228459 -0.184125
v 0.184124 2.228459 0.184124
v -0.000001 2.281028 -0.000000
v -0.000001 1.931061 1.079727
v 1.079726 1.931061 -0.000000
v -0.000001 1.931061 -1.079728
v -1.079728 1.931061 0.000000
v 0.809795 1.931061 0.809796
v 0.809795 1.931061 -0.809796
v -0.809796 1.931060 0.809796
v -0.809796 1.931061 -0.809796
v -0.000000 1.283440 1.546772
v 1.546771 1.283440 -0.000000
v -0.000001 1.283440 -1.546772
v -1.546772 1.283440 0.000000
v 1.160078 1.283440 1.160079
v 1.160078 1.283440 -1.160079
v -1.160079 1.283439 1.160079
v -1.160080 1.283440 -1.160079
v 0.000000 0.724787 1.625911
v 1.625911 0.724788 -0.000000
v -0.000001 0.724788 -1.625911
v -1.625911 0.724787 0.000000
v 1.219433 0.724788 1.219433
v 1.219432 0.724788 -1.219433
v -1.219433 0.724787 1.219433
v -1.219434 0.724788 -1.219433
v -0.000000 0.312911 1.386536
v 1.386535 0.312911 -0.000000
v -0.000001 0.312912 -1.386536
v -1.386535 0.312911 0.000000
v 1.039901 0.312911 1.039902
v 1.039901 0.312911 -1.039902
v -1.039901 0.312911 1.039902
v -1.039902 0.312911 -1.039902
v -0.000000 0.185502 0.941393
v 0.941392 0.185502 0.000000
v -0.000000 0.185502 -0.941393
v -0.941393 0.185502 0.000000
v 0.706044 0.185502 0.706045
v 0.706044 0.185502 -0.706045
v -0.706045 0.185502 0.706045
v -0.706045 0.185502 -0.706045
v -0.000000 -0.000000 -0.779409
v -0.779409 -0.000000 0.000000
v -0.000000 -0.000000 0.779410
v 0.779409 -0.000000 0.000000
v -0.584557 -0.000000 -0.584557
v -0.584557 -0.000000 0.584557
v 0.584556 0.000000 -0.584557
v 0.584557 0.000000 0.584557
v 1.332514 0.451309 -0.287359
v 1.148423 1.079865 -0.287359
v 1.148423 1.079865 0.287359
v 1.332514 0.451309 0.287359
v 2.036278 0.733885 -0.000000
v 1.980046 0.858561 -0.236894
v 1.839630 1.169885 -0.232359
v 1.771417 1.321121 -0.000000
v 1.839630 1.169885 0.232729
v 1.980046 0.858561 0.236894
v 2.283303 1.312965 -0.000000
v 2.210059 1.384450 -0.177269
v 2.063571 1.527420 -0.177269
v 1.990328 1.598905 -0.000000
v 2.063572 1.527420 0.177269
v 2.210059 1.384450 0.177269
v 2.294274 1.825014 -0.000000
v 2.465126 1.825014 0.125003
v 2.465126 1.825014 -0.124999
v 2.635975 1.825015 -0.000001
v 2.354917 1.801708 -0.000000
v 2.459605 1.801707 0.076595
v 2.459605 1.801707 -0.076593
v 2.564292 1.801707 -0.000000
v -1.732537 0.568920 0.000000
v -1.646083 0.763116 0.246218
v -1.646084 0.763116 -0.246218
v -1.559630 0.891149 0.000000
v -1.367902 0.405737 0.000000
v -1.451022 0.705321 0.364612
v -1.451022 0.705322 -0.364611
v -1.139038 1.800074 0.000000
v -1.169954 1.729598 0.097680
v -1.169954 1.729598 -0.097680
v -1.200870 1.659122 0.000000
v 2.354917 1.801708 -0.000000
v 2.459605 1.801707 0.076595
v 2.459605 1.801707 -0.076593
v 2.564292 1.801707 -0.000000
vn -0.1101 0.9878 -0.1101
vn -0.1101 0.9878 0.1101
vn 0.1101 0.9878 0.1101
vn 0.1101 0.9878 -0.1101
vn -0.9403 -0.3402 -0.0000
vn -0.0000 0.9616 -0.2745
vn -0.2745 0.9616 0.0000
vn 0.2745 0.9616 0.0000
vn 0.0000 0.9616 0.2745
vn 0.9403 -0.3402 -0.0000
vn 0.0000 -0.3402 0.9403
vn 0.0000 -0.3402 -0.9403
vn -0.0142 0.8892 0.4574
vn -0.4026 -0.7108 -0.5768
vn -0.4026 -0.7108 0.5768
vn 0.3119 0.7776 0.5460
vn 0.3119 0.7776 -0.5460
vn -0.4362 -0.6426 -0.6300
vn -0.4362 -0.6426 0.6300
vn 0.6004 0.5189 0.6085
vn 0.6004 0.5189 -0.6085
vn -0.6637 -0.4286 -0.6130
vn -0.6637 -0.4286 0.6130
vn 0.7961 0.1047 0.5961
vn 0.7961 0.1047 -0.5961
vn -0.8022 -0.0171 -0.5968
vn -0.8022 -0.0171 0.5968
vn -0.5811 0.5994 0.5505
vn -0.5811 0.5994 -0.5505
vn 0.6112 -0.5706 0.5485
vn 0.6112 -0.5706 -0.5485
vn 0.1612 -0.7717 0.6152
vn 0.1612 -0.7717 -0.6152
vn -0.0563 0.7838 -0.6184
vn -0.0563 0.7838 0.6184
vn 0.1017 0.7865 0.6092
vn -0.0753 -0.7902 0.6082
vn -0.0753 -0.7902 -0.6082
vn 0.1017 0.7865 -0.6092
vn -0.0142 0.8892 -0.4574
vn 0.3221 0.8381 0.4403
vn -0.2848 0.8760 0.3893
vn 0.5734 -0.2390 -0.7837
vn -0.4731 0.6917 -0.5456
vn 0.0736 0.0754 -0.9944
vn 0.1038 0.0754 -0.9917
vn 0.3221 0.8381 -0.4403
vn -0.2848 0.8760 -0.3893
vn -0.4731 0.6917 0.5456
vn 0.0736 0.0754 0.9944
vn 0.7158 -0.4930 0.4946
vn 0.5734 -0.2390 0.7837
vn 0.7158 -0.4930 -0.4946
vn 0.8398 -0.3397 -0.4234
vn 0.8398 -0.3397 0.4234
vn 0.1048 0.0753 0.9916
vn -0.6804 0.5194 0.5169
vn -0.6804 0.5191 -0.5172
vn -0.0867 0.8476 -0.5235
vn -0.0870 0.8478 0.5231
vn 0.0679 0.0279 0.9973
vn 0.4875 -0.7349 0.4713
vn 0.4875 -0.7349 -0.4713
vn 0.0681 0.0283 -0.9973
vn 0.7830 0.5647 -0.2610
vn -0.2129 0.9745 0.0710
vn 0.2610 0.5647 -0.7830
vn -0.2610 0.5647 -0.7830
vn -0.0710 0.9745 0.2129
vn 0.0710 0.9745 0.2129
vn -0.7830 0.5647 -0.2610
vn 0.2129 0.9745 0.0710
vn -0.7830 0.5647 0.2610
vn 0.2129 0.9745 -0.0710
vn -0.2610 0.5647 0.7830
vn 0.0710 0.9745 -0.2129
vn 0.2610 0.5647 0.7830
vn -0.0710 0.9745 -0.2129
vn -0.2129 0.9745 -0.0710
vn 0.7830 0.5647 0.2610
vn 0.9402 0.1332 -0.3134
vn 0.3134 0.1332 -0.9402
vn -0.3134 0.1332 -0.9402
vn -0.9402 0.1332 -0.3134
vn -0.9402 0.1332 0.3134
vn -0.3134 0.1332 0.9402
vn 0.3134 0.1332 0.9402
vn 0.9402 0.1332 0.3134
vn 0.8308 -0.4828 -0.2769
vn 0.2769 -0.4828 -0.8308
vn -0.2769 -0.4828 -0.8308
vn -0.8308 -0.4828 -0.2769
vn -0.8308 -0.4828 0.2769
vn -0.2769 -0.4828 0.8308
vn 0.2769 -0.4828 0.8308
vn 0.8308 -0.4828 0.2769
vn 0.2740 -0.9574 -0.0913
vn 0.0913 -0.9574 -0.2740
vn -0.0913 -0.9574 -0.2740
vn -0.2740 -0.9574 -0.0913
vn -0.2740 -0.9574 0.0913
vn -0.0913 -0.9574 0.2740
vn 0.0913 -0.9574 0.2740
vn 0.2740 -0.9574 0.0913
vn 0.7306 -0.6379 0.2435
vn 0.7306 -0.6379 -0.2435
vn 0.2435 -0.6379 -0.7306
vn -0.2435 -0.6379 -0.7306
vn -0.7306 -0.6379 -0.2435
vn -0.7306 -0.6379 0.2435
vn -0.2435 -0.6379 0.7306
vn 0.2435 -0.6379 0.7306
vn 0.0000 -1.0000 0.0000
vn 0.0000 0.0000 1.0000
vn -0.5251 0.4575 -0.7176
vn 0.5483 -0.3712 0.7494
vn -0.5251 0.4575 0.7176
vn 0.5483 -0.3712 -0.7494
usemtl None
s off
f 21//1 22//1 26//1 23//1
f 21//2 23//2 27//2 24//2
f 21//3 24//3 29//3 25//3
f 21//4 25//4 28//4 22//4
f 32//5 35//5 34//5 33//5
f 34//6 38//6 36//6
f 34//7 35//7 38//7
f 36//8 38//8 37//8
f 38//9 35//9 37//9
f 30//10 31//10 36//10 37//10
f 30//11 37//11 35//11 32//11
f 31//12 33//12 34//12 36//12
f 112//13 116//13 114//13
f 111//14 113//14 117//14 115//14
f 112//15 111//15 115//15 116//15
f 20//16 18//16 112//16 114//16
f 19//17 20//17 114//17 113//17
f 17//18 19//18 113//18 111//18
f 18//19 17//19 111//19 112//19
f 16//20 14//20 18//20 20//20
f 15//21 16//21 20//21 19//21
f 13//22 15//22 19//22 17//22
f 14//23 13//23 17//23 18//23
f 12//24 10//24 14//24 16//24
f 11//25 12//25 16//25 15//25
f 9//26 11//26 15//26 13//26
f 10//27 9//27 13//27 14//27
f 6//28 5//28 9//28 10//28
f 5//29 7//29 11//29 9//29
f 8//30 6//30 10//30 12//30
f 7//31 8//31 12//31 11//31
f 4//32 2//32 6//32 8//32
f 3//33 4//33 8//33 7//33
f 1//34 3//34 7//34 5//34
f 2//35 1//35 5//35 6//35
f 2//36 119//36 118//36 1//36
f 4//37 121//37 119//37 2//37
f 3//38 120//38 121//38 4//38
f 1//39 118//39 120//39 3//39
f 114//40 117//40 113//40
f 103//41 107//41 109//41 105//41
f 105//42 109//42 110//42 106//42
f 106//43 98//43 105//43
f 100//44 103//44 105//44 99//44
f 99//45 105//45 98//45
f 92//46 93//46 99//46 98//46
f 104//47 108//47 107//47 103//47
f 106//48 110//48 108//48 104//48
f 101//49 104//49 103//49 100//49
f 101//50 102//50 104//50
f 102//51 97//51 106//51
f 106//52 104//52 102//52
f 97//53 98//53 106//53
f 91//54 92//54 98//54 97//54
f 96//55 91//55 97//55 102//55
f 95//56 96//56 102//56 101//56
f 94//57 95//57 101//57 100//57
f 93//58 94//58 100//58 99//58
f 88//59 48//59 94//59 93//59
f 94//60 48//60 89//60 95//60
f 89//61 90//61 96//61 95//61
f 96//62 90//62 64//62 91//62
f 91//63 64//63 87//63 92//63
f 87//64 88//64 93//64 92//64
f 44//65 40//65 48//65 52//65
f 28//66 25//66 40//66 44//66
f 41//67 44//67 52//67 49//67
f 46//68 41//68 49//68 54//68
f 22//69 28//69 44//69 41//69
f 26//70 22//70 41//70 46//70
f 42//71 46//71 54//71 50//71
f 23//72 26//72 46//72 42//72
f 45//73 42//73 50//73 53//73
f 27//74 23//74 42//74 45//74
f 39//75 45//75 53//75 47//75
f 24//76 27//76 45//76 39//76
f 43//77 39//77 47//77 51//77
f 29//78 24//78 39//78 43//78
f 25//79 29//79 43//79 40//79
f 40//80 43//80 51//80 48//80
f 52//81 48//81 56//81 60//81
f 49//82 52//82 60//82 57//82
f 54//83 49//83 57//83 62//83
f 50//84 54//84 62//84 58//84
f 53//85 50//85 58//85 61//85
f 47//86 53//86 61//86 55//86
f 51//87 47//87 55//87 59//87
f 48//88 51//88 59//88 56//88
f 60//89 56//89 64//89 68//89
f 57//90 60//90 68//90 65//90
f 62//91 57//91 65//91 70//91
f 58//92 62//92 70//92 66//92
f 61//93 58//93 66//93 69//93
f 55//94 61//94 69//94 63//94
f 59//95 55//95 63//95 67//95
f 56//96 59//96 67//96 64//96
f 68//97 64//97 72//97 76//97
f 65//98 68//98 76//98 73//98
f 70//99 65//99 73//99 78//99
f 66//100 70//100 78//100 74//100
f 69//101 66//101 74//101 77//101
f 63//102 69//102 77//102 71//102
f 67//103 63//103 71//103 75//103
f 64//104 67//104 75//104 72//104
f 72//105 75//105 86//105 82//105
f 76//106 72//106 82//106 85//106
f 73//107 76//107 85//107 79//107
f 78//108 73//108 79//108 83//108
f 74//109 78//109 83//109 80//109
f 77//110 74//110 80//110 84//110
f 71//111 77//111 84//111 81//111
f 75//112 71//112 81//112 86//112
f 85//113 82//113 86//113 81//113 84//113 80//113 83//113 79//113
f 108//114 110//114 125//114 123//114
f 109//114 107//114 122//114 124//114
f 110//114 109//114 124//114 125//114
f 107//114 108//114 123//114 122//114
f 123//115 125//115 56//115
f 124//116 122//116 56//116
f 125//117 124//117 56//117
f 122//118 123//118 56//118
